PathFileType	4	(X/Y/Z)	Kaydara																																																																																																																									
DataRate	CameraRate	NumFrames	NumMarkers	Units	OrigDataRate	OrigDataStartFrame	OrigNumFrames																																																																																																																					
30	30	7	41	mm	30	57	111																																																																																																																					
Frame#	Time	PAIB_LFHD			PAIB_RFHD			PAIB_LBHD			PAIB_RBHD			PAIB_LFTShould			PAIB_RFTShould			PAIB_LRRShould			PAIB_RRRShould			PAIB_T10			PAIB_STRN			PAIB_TRUN			PAIB_LSHO			PAIB_LUPA			PAIB_LELB			PAIB_LFRM			PAIB_LWRA			PAIB_LWRB			PAIB_LFIN			PAIB_RSHO			PAIB_RUPA			PAIB_RELB			PAIB_RFRM			PAIB_RWRA			PAIB_RWRB			PAIB_RFIN			PAIB_LFWT			PAIB_RFWT			PAIB_LBWT			PAIB_RBWT			PAIB_LTHI			PAIB_LKNE			PAIB_LSHN			PAIB_LANK			PAIB_LHEE			PAIB_LTOE			PAIB_RTHI			PAIB_RKNE			PAIB_RSHN			PAIB_RANK			PAIB_RHEE			PAIB_RTOE		
		X1	Y1	Z1	X2	Y2	Z2	X3	Y3	Z3	X4	Y4	Z4	X5	Y5	Z5	X6	Y6	Z6	X7	Y7	Z7	X8	Y8	Z8	X9	Y9	Z9	X10	Y10	Z10	X11	Y11	Z11	X12	Y12	Z12	X13	Y13	Z13	X14	Y14	Z14	X15	Y15	Z15	X16	Y16	Z16	X17	Y17	Z17	X18	Y18	Z18	X19	Y19	Z19	X20	Y20	Z20	X21	Y21	Z21	X22	Y22	Z22	X23	Y23	Z23	X24	Y24	Z24	X25	Y25	Z25	X26	Y26	Z26	X27	Y27	Z27	X28	Y28	Z28	X29	Y29	Z29	X30	Y30	Z30	X31	Y31	Z31	X32	Y32	Z32	X33	Y33	Z33	X34	Y34	Z34	X35	Y35	Z35	X36	Y36	Z36	X37	Y37	Z37	X38	Y38	Z38	X39	Y39	Z39	X40	Y40	Z40	X41	Y41	Z41
																																																																																																																												
42	1.867	275.3853	1597.55051	-1587.37335	89.31447	1591.38962	-1610.87753	299.31442	1581.30142	-1713.96103	95.86605	1584.19067	-1725.16708	243.53928	1335.53574	-1654.8024	123.00786	1338.21548	-1686.93115	288.18874	1435.55908	-1767.14417	141.31696	1442.40967	-1798.47763	237.16139	1312.12418	-1906.62033	185.63389	1264.24484	-1653.54401	184.7751	1160.3302	-1662.44217	389.08958	1364.24332	-1698.64304	504.43256	1174.90044	-1752.27936	546.54682	1109.00528	-1793.57529	509.85249	1003.92441	-1724.95544	385.52525	941.56631	-1653.47488	444.45667	895.68405	-1686.45493	415.03864	880.32173	-1618.86932	18.49349	1374.83276	-1784.82559	-34.35184	1285.52734	-1933.97491	-70.71027	1204.67384	-2011.68854	-101.78543	1062.75055	-2018.53714	-75.16543	941.65871	-1928.27087	-130.56779	943.51387	-2006.47385	-142.74077	896.85776	-1938.11493	313.59695	903.13805	-1760.6105	79.58884	927.01752	-1776.7038	261.82302	971.08253	-1983.06915	119.24745	977.5338	-1985.14877	295.72746	728.26164	-2018.55133	325.03971	462.74239	-1991.0907	290.54754	279.4479	-2045.46799	287.42371	132.56346	-2191.09802	230.81633	136.28344	-2238.42911	272.86934	74.9821	-2030.67581	25.56305	673.64067	-1868.2428	2.99255	506.96148	-1660.94055	84.39572	324.66087	-1676.36322	90.63713	153.29426	-1816.73553	157.23272	167.73998	-1841.30157	76.74606	101.29972	-1636.64993
43	1.9	269.5953	1583.43323	-1548.96088	84.16253	1576.49933	-1573.1572	294.42392	1567.53448	-1675.56763	90.98633	1569.81567	-1687.97394	238.06124	1319.88937	-1618.68408	118.32022	1322.96829	-1653.72894	285.1852	1423.11127	-1727.95441	138.76829	1430.16953	-1761.7923	237.25801	1303.14178	-1871.492	180.41296	1248.05138	-1620.76859	179.91245	1144.54628	-1632.35077	383.68679	1349.758	-1657.95944	502.55058	1162.43118	-1706.99539	546.94328	1096.79947	-1746.31226	505.52288	994.64035	-1675.34134	377.78145	937.62184	-1606.12869	436.93836	889.59419	-1635.12421	404.77932	877.59041	-1568.116	16.05585	1361.67389	-1751.69678	-33.94384	1280.4805	-1906.47919	-69.59619	1203.26988	-1988.13034	-100.94179	1061.36597	-1999.57108	-75.90913	938.31062	-1911.86615	-131.02344	941.71181	-1991.31943	-143.57387	894.18724	-1923.13995	312.77121	892.07329	-1734.26468	79.01917	917.4131	-1751.4505	260.82037	962.30873	-1956.60065	118.45398	968.37112	-1959.73755	293.96458	726.42715	-1998.28064	324.90761	461.16814	-1985.31479	291.39622	278.89765	-2044.03458	287.69108	135.07319	-2192.4707	230.23085	139.18276	-2238.44116	274.46743	74.78854	-2032.54852	24.46568	666.36276	-1835.28824	5.03006	507.9018	-1619.32281	82.52994	324.93462	-1600.31815	90.10764	131.12436	-1707.51862	157.45028	140.6841	-1731.90643	71.81609	109.23506	-1519.65942
44	1.933	262.56044	1567.83432	-1507.621	77.06277	1560.67917	-1531.72775	287.24438	1552.01645	-1634.12537	83.87595	1553.91434	-1646.56616	230.60747	1302.88895	-1579.06967	111.85073	1307.05994	-1617.77573	280.14662	1409.13773	-1684.53033	134.57747	1417.09885	-1721.5213	235.96804	1293.84048	-1832.91809	173.45707	1230.88348	-1585.0386	173.86166	1127.76062	-1599.41345	376.50383	1333.73367	-1613.56598	498.31116	1149.76196	-1660.14313	545.98709	1085.56641	-1699.58008	499.18106	987.68379	-1623.61755	367.74494	937.5956	-1555.70236	427.21073	886.96358	-1580.47943	392.74891	878.94341	-1514.0004	12.05938	1347.71973	-1715.75424	-36.00591	1273.89458	-1873.6348	-71.18353	1200.37315	-1958.86307	-102.39272	1058.91884	-1974.4017	-77.16907	933.64426	-1890.37918	-124.20517	933.26538	-1960.72861	-144.93074	890.18852	-1902.19772	311.00462	879.97253	-1705.42908	77.70962	907.4324	-1722.13684	259.31993	953.96881	-1926.45615	116.7703	959.552	-1930.31921	291.609	725.06317	-1975.64484	324.83402	460.43617	-1977.84302	292.8167	279.7599	-2041.30081	288.16866	139.62976	-2193.30566	230.05411	144.60544	-2238.39142	276.39874	74.77003	-2035.68344	28.47467	660.2816	-1800.41687	9.39411	504.86076	-1580.74265	80.62266	326.06556	-1529.8764	82.76332	116.85177	-1601.4357	150.44866	120.90035	-1626.26541	63.65559	122.20855	-1410.56564
45	1.967	253.52594	1552.51053	-1462.63443	68.21523	1544.04907	-1487.22153	278.67634	1536.80023	-1588.99384	75.37587	1537.38373	-1602.14722	221.61552	1285.83099	-1535.2095	103.59654	1290.58258	-1576.11847	273.01365	1395.91217	-1637.54303	128.23514	1403.83926	-1676.27197	232.17564	1284.84268	-1790.10803	165.24696	1213.30521	-1545.46875	166.31039	1110.83801	-1563.0098	367.08099	1318.37753	-1565.64621	494.80019	1140.38834	-1612.76108	542.78069	1076.8708	-1650.06195	491.76964	983.62251	-1571.34766	357.88929	940.11024	-1504.38004	416.97548	886.86157	-1524.86664	380.29884	884.39796	-1458.43689	6.30389	1333.87619	-1674.48334	-40.16344	1267.12204	-1835.5014	-74.6694	1197.23099	-1924.33899	-104.88275	1055.95161	-1945.01556	-81.14731	929.13139	-1862.80167	-125.8855	930.0016	-1934.57932	-148.70752	885.54504	-1877.89948	310.17286	867.98477	-1674.65149	76.71824	896.86974	-1687.77802	255.80845	947.22061	-1893.26035	112.92395	951.60873	-1895.62531	288.55118	722.94434	-1950.24612	324.45354	459.41055	-1965.01968	294.90791	281.68985	-2035.80185	290.1981	146.69562	-2192.98096	231.73786	153.3933	-2237.60269	278.83963	74.58507	-2039.49966	33.77476	653.04901	-1764.37561	16.92149	498.52818	-1542.6416	81.94385	325.87524	-1471.14594	72.35475	109.99885	-1515.20187	139.45873	107.62018	-1543.6055	62.84204	139.53835	-1324.54254
46	2	243.37067	1537.50931	-1415.04227	58.00641	1528.93539	-1438.83133	267.93797	1522.10724	-1541.474	64.55583	1522.57217	-1553.78571	209.77659	1270.22705	-1485.47974	94.51639	1273.23891	-1531.07635	262.47738	1383.5585	-1587.13104	118.11994	1389.90646	-1627.26685	224.93958	1275.44418	-1742.98004	156.18831	1196.43295	-1501.26251	159.2885	1094.52988	-1521.29913	355.53207	1306.00311	-1515.37201	488.61382	1134.12071	-1562.72537	538.80127	1071.84608	-1599.48761	485.6295	982.16072	-1518.57895	350.67448	944.23882	-1450.80292	409.14597	889.80286	-1468.20526	371.3924	890.00076	-1402.16095	-2.29564	1319.27048	-1628.92868	-48.3986	1259.79591	-1792.21848	-82.96714	1193.17642	-1883.57208	-112.18387	1052.11937	-1908.0925	-86.64823	923.34877	-1829.5578	-141.87619	922.73552	-1904.2569	-154.04953	880.05013	-1844.25369	310.43177	856.12671	-1640.793	77.19295	886.57959	-1647.9245	250.32663	940.59906	-1855.55176	107.18438	944.68086	-1855.64636	283.70127	721.32858	-1920.65613	324.62242	459.83246	-1948.51318	297.04733	284.86685	-2026.98868	292.56084	157.51149	-2190.40771	233.28686	166.00586	-2234.00421	281.22025	74.47073	-2043.09967	33.66231	644.69353	-1724.15375	24.05097	492.5938	-1498.73459	87.44841	318.88432	-1431.68488	67.16375	103.22134	-1470.80841	132.42357	97.11623	-1504.47342	72.38316	139.41307	-1281.08582
47	2.033	231.62531	1525.54626	-1364.7641	46.33576	1516.38916	-1386.71814	255.13311	1509.46304	-1491.32584	51.73404	1509.31717	-1501.83868	200.45042	1255.62592	-1439.70078	83.81549	1258.27118	-1482.18613	250.09348	1373.96072	-1534.8053	105.35942	1377.65564	-1575.57053	215.47819	1267.25899	-1692.34604	146.22359	1181.98311	-1452.71484	151.35786	1080.51361	-1474.43085	343.16906	1297.19711	-1462.01599	482.52048	1131.18507	-1510.26428	533.43597	1071.24817	-1547.19299	480.8419	983.19321	-1464.28467	346.13304	944.98833	-1398.24631	405.91248	890.1413	-1412.03598	366.02837	894.29939	-1346.84174	-13.09267	1304.94339	-1578.30444	-61.13785	1250.08743	-1742.12036	-95.70838	1186.05675	-1834.66675	-124.08696	1045.81383	-1862.8598	-96.62395	915.41	-1788.92838	-145.26462	920.07469	-1860.78934	-163.75134	871.89713	-1803.54935	311.00945	845.62897	-1603.80676	78.41268	878.46565	-1604.14886	243.89536	936.86417	-1814.70688	100.44145	942.44492	-1812.07764	278.41257	719.06372	-1887.1051	323.43155	460.6612	-1925.27847	297.73794	289.45822	-2012.36313	294.31326	172.1657	-2183.1337	234.78525	183.53058	-2225.62485	282.75	74.1747	-2045.99915	30.19775	640.50705	-1678.46008	28.37649	486.63757	-1453.72238	96.18661	308.94575	-1406.19995	78.41316	100.86973	-1469.28192	139.98431	99.06522	-1502.20932	75.6741	97.52985	-1275.17319
48	2.067	218.5741	1518.81027	-1311.11481	34.03964	1508.94791	-1332.12402	241.3603	1502.93076	-1437.75848	37.98871	1502.40448	-1447.19955	189.78172	1246.89743	-1386.13876	73.90963	1248.20175	-1429.71664	236.86575	1370.13336	-1478.33755	91.72491	1370.65033	-1520.08759	205.89651	1266.27419	-1638.73367	136.66159	1172.15187	-1401.41296	143.44732	1071.35788	-1425.22964	329.82685	1294.08417	-1405.11505	473.22323	1133.17963	-1458.11707	526.30917	1075.94208	-1496.95602	477.53799	984.40948	-1415.43579	345.56065	940.32982	-1349.1127	406.9965	887.81067	-1363.95172	369.31252	892.02072	-1297.74399	-24.01332	1293.45047	-1523.71231	-75.09234	1239.87236	-1686.69434	-110.5432	1177.08504	-1779.85168	-138.47158	1037.19658	-1810.07156	-109.05478	906.11061	-1738.3432	-159.53196	911.6198	-1810.0824	-176.90939	863.47717	-1752.11151	308.14693	841.13052	-1561.035	76.6123	879.28314	-1558.86841	241.18761	938.14804	-1769.80804	98.28895	946.85898	-1766.42334	274.81647	719.36378	-1846.38382	320.44086	462.05204	-1888.97583	294.6748	296.29118	-1986.76468	293.84762	192.2023	-2166.05087	234.3734	208.00348	-2207.40814	282.31066	74.07235	-2047.56744	26.90793	643.39355	-1638.54477	27.00367	488.34694	-1415.55893	95.01885	305.84379	-1383.44162	76.94257	101.04954	-1461.7955	140.30162	102.53087	-1495.68176	73.36524	88.75695	-1270.16243
